<svg xmlns:sketch="http://www.bohemiancoding.com/sketch/ns" xmlns:rdf="http://www.w3.org/1999/02/22-rdf-syntax-ns#" xmlns="http://www.w3.org/2000/svg" version="1.1" xmlns:cc="http://creativecommons.org/ns#" viewBox="0 0 144 54" xmlns:dc="http://purl.org/dc/elements/1.1/">
 <metadata>
  <rdf:RDF>
   <cc:Work rdf:about="">
    <dc:format>image/svg+xml</dc:format>
    <dc:type rdf:resource="http://purl.org/dc/dcmitype/StillImage"/>
    <dc:title>Logo_white_shadow</dc:title>
   </cc:Work>
  </rdf:RDF>
 </metadata>
 <title>Logo_white_shadow</title>
 <defs>
  <filter id="filter-1" height="2" width="2" color-interpolation-filters="sRGB" y="-0.5" x="-0.5" filterUnits="objectBoundingBox">
   <feOffset in="SourceAlpha" result="shadowOffsetOuter1" dx="0" dy="0"/>
   <feGaussianBlur stdDeviation="1.5" result="shadowBlurOuter1" in="shadowOffsetOuter1"/>
   <feColorMatrix type="matrix" values="0 0 0 0 0.3   0 0 0 0 0.3   0 0 0 0 0.3  0 0 0 0.35 0" result="shadowMatrixOuter1" in="shadowBlurOuter1"/>
   <feMerge>
    <feMergeNode in="shadowMatrixOuter1"/>
    <feMergeNode in="SourceGraphic"/>
   </feMerge>
  </filter>
  <filter id="filter-2" height="2" width="2" color-interpolation-filters="sRGB" y="-0.5" x="-0.5" filterUnits="objectBoundingBox">
   <feOffset in="SourceAlpha" result="shadowOffsetOuter1" dx="0" dy="0"/>
   <feGaussianBlur stdDeviation="1.5" result="shadowBlurOuter1" in="shadowOffsetOuter1"/>
   <feColorMatrix type="matrix" values="0 0 0 0 0.3   0 0 0 0 0.3   0 0 0 0 0.3  0 0 0 0.35 0" result="shadowMatrixOuter1" in="shadowBlurOuter1"/>
   <feMerge>
    <feMergeNode in="shadowMatrixOuter1"/>
    <feMergeNode in="SourceGraphic"/>
   </feMerge>
  </filter>
  <filter id="filter-3" height="2" width="2" color-interpolation-filters="sRGB" y="-0.5" x="-0.5" filterUnits="objectBoundingBox">
   <feOffset in="SourceAlpha" result="shadowOffsetOuter1" dx="0" dy="0"/>
   <feGaussianBlur stdDeviation="1.5" result="shadowBlurOuter1" in="shadowOffsetOuter1"/>
   <feColorMatrix type="matrix" values="0 0 0 0 0.3   0 0 0 0 0.3   0 0 0 0 0.3  0 0 0 0.35 0" result="shadowMatrixOuter1" in="shadowBlurOuter1"/>
   <feMerge>
    <feMergeNode in="shadowMatrixOuter1"/>
    <feMergeNode in="SourceGraphic"/>
   </feMerge>
  </filter>
  <filter id="filter-4" height="2" width="2" color-interpolation-filters="sRGB" y="-0.5" x="-0.5" filterUnits="objectBoundingBox">
   <feOffset in="SourceAlpha" result="shadowOffsetOuter1" dx="0" dy="0"/>
   <feGaussianBlur stdDeviation="1.5" result="shadowBlurOuter1" in="shadowOffsetOuter1"/>
   <feColorMatrix type="matrix" values="0 0 0 0 0.3   0 0 0 0 0.3   0 0 0 0 0.3  0 0 0 0.35 0" result="shadowMatrixOuter1" in="shadowBlurOuter1"/>
   <feMerge>
    <feMergeNode in="shadowMatrixOuter1"/>
    <feMergeNode in="SourceGraphic"/>
   </feMerge>
  </filter>
  <filter id="filter-5" height="2" width="2" color-interpolation-filters="sRGB" y="-0.5" x="-0.5" filterUnits="objectBoundingBox">
   <feOffset in="SourceAlpha" result="shadowOffsetOuter1" dx="0" dy="0"/>
   <feGaussianBlur stdDeviation="1.5" result="shadowBlurOuter1" in="shadowOffsetOuter1"/>
   <feColorMatrix type="matrix" values="0 0 0 0 0.3   0 0 0 0 0.3   0 0 0 0 0.3  0 0 0 0.35 0" result="shadowMatrixOuter1" in="shadowBlurOuter1"/>
   <feMerge>
    <feMergeNode in="shadowMatrixOuter1"/>
    <feMergeNode in="SourceGraphic"/>
   </feMerge>
  </filter>
  <filter id="filter-6" height="2" width="2" color-interpolation-filters="sRGB" y="-0.5" x="-0.5" filterUnits="objectBoundingBox">
   <feOffset in="SourceAlpha" result="shadowOffsetOuter1" dx="0" dy="0"/>
   <feGaussianBlur stdDeviation="1.5" result="shadowBlurOuter1" in="shadowOffsetOuter1"/>
   <feColorMatrix type="matrix" values="0 0 0 0 0.3   0 0 0 0 0.3   0 0 0 0 0.3  0 0 0 0.35 0" result="shadowMatrixOuter1" in="shadowBlurOuter1"/>
   <feMerge>
    <feMergeNode in="shadowMatrixOuter1"/>
    <feMergeNode in="SourceGraphic"/>
   </feMerge>
  </filter>
  <filter id="filter-7" height="2" width="2" color-interpolation-filters="sRGB" y="-0.5" x="-0.5" filterUnits="objectBoundingBox">
   <feOffset in="SourceAlpha" result="shadowOffsetOuter1" dx="0" dy="0"/>
   <feGaussianBlur stdDeviation="1.5" result="shadowBlurOuter1" in="shadowOffsetOuter1"/>
   <feColorMatrix type="matrix" values="0 0 0 0 0.3   0 0 0 0 0.3   0 0 0 0 0.3  0 0 0 0.35 0" result="shadowMatrixOuter1" in="shadowBlurOuter1"/>
   <feMerge>
    <feMergeNode in="shadowMatrixOuter1"/>
    <feMergeNode in="SourceGraphic"/>
   </feMerge>
  </filter>
  <filter id="filter-8" height="2" width="2" color-interpolation-filters="sRGB" y="-0.5" x="-0.5" filterUnits="objectBoundingBox">
   <feOffset in="SourceAlpha" result="shadowOffsetOuter1" dx="0" dy="0"/>
   <feGaussianBlur stdDeviation="1.5" result="shadowBlurOuter1" in="shadowOffsetOuter1"/>
   <feColorMatrix type="matrix" values="0 0 0 0 0.3   0 0 0 0 0.3   0 0 0 0 0.3  0 0 0 0.35 0" result="shadowMatrixOuter1" in="shadowBlurOuter1"/>
   <feMerge>
    <feMergeNode in="shadowMatrixOuter1"/>
    <feMergeNode in="SourceGraphic"/>
   </feMerge>
  </filter>
  <filter id="filter-9" height="2" width="2" color-interpolation-filters="sRGB" y="-0.5" x="-0.5" filterUnits="objectBoundingBox">
   <feOffset in="SourceAlpha" result="shadowOffsetOuter1" dx="0" dy="0"/>
   <feGaussianBlur stdDeviation="1.5" result="shadowBlurOuter1" in="shadowOffsetOuter1"/>
   <feColorMatrix type="matrix" values="0 0 0 0 0.3   0 0 0 0 0.3   0 0 0 0 0.3  0 0 0 0.35 0" result="shadowMatrixOuter1" in="shadowBlurOuter1"/>
   <feMerge>
    <feMergeNode in="shadowMatrixOuter1"/>
    <feMergeNode in="SourceGraphic"/>
   </feMerge>
  </filter>
  <filter id="filter-10" height="2" width="2" color-interpolation-filters="sRGB" y="-0.5" x="-0.5" filterUnits="objectBoundingBox">
   <feOffset in="SourceAlpha" result="shadowOffsetOuter1" dx="0" dy="0"/>
   <feGaussianBlur stdDeviation="1.5" result="shadowBlurOuter1" in="shadowOffsetOuter1"/>
   <feColorMatrix type="matrix" values="0 0 0 0 0.3   0 0 0 0 0.3   0 0 0 0 0.3  0 0 0 0.35 0" result="shadowMatrixOuter1" in="shadowBlurOuter1"/>
   <feMerge>
    <feMergeNode in="shadowMatrixOuter1"/>
    <feMergeNode in="SourceGraphic"/>
   </feMerge>
  </filter>
  <filter id="filter-11" height="2" width="2" color-interpolation-filters="sRGB" y="-0.5" x="-0.5" filterUnits="objectBoundingBox">
   <feOffset in="SourceAlpha" result="shadowOffsetOuter1" dx="0" dy="0"/>
   <feGaussianBlur stdDeviation="1.5" result="shadowBlurOuter1" in="shadowOffsetOuter1"/>
   <feColorMatrix type="matrix" values="0 0 0 0 0.3   0 0 0 0 0.3   0 0 0 0 0.3  0 0 0 0.35 0" result="shadowMatrixOuter1" in="shadowBlurOuter1"/>
   <feMerge>
    <feMergeNode in="shadowMatrixOuter1"/>
    <feMergeNode in="SourceGraphic"/>
   </feMerge>
  </filter>
  <filter id="filter-12" height="2" width="2" color-interpolation-filters="sRGB" y="-0.5" x="-0.5" filterUnits="objectBoundingBox">
   <feOffset in="SourceAlpha" result="shadowOffsetOuter1" dx="0" dy="0"/>
   <feGaussianBlur stdDeviation="1.5" result="shadowBlurOuter1" in="shadowOffsetOuter1"/>
   <feColorMatrix type="matrix" values="0 0 0 0 0.3   0 0 0 0 0.3   0 0 0 0 0.3  0 0 0 0.35 0" result="shadowMatrixOuter1" in="shadowBlurOuter1"/>
   <feMerge>
    <feMergeNode in="shadowMatrixOuter1"/>
    <feMergeNode in="SourceGraphic"/>
   </feMerge>
  </filter>
  <filter id="filter-13" height="2" width="2" color-interpolation-filters="sRGB" y="-0.5" x="-0.5" filterUnits="objectBoundingBox">
   <feOffset in="SourceAlpha" result="shadowOffsetOuter1" dx="0" dy="0"/>
   <feGaussianBlur stdDeviation="1.5" result="shadowBlurOuter1" in="shadowOffsetOuter1"/>
   <feColorMatrix type="matrix" values="0 0 0 0 0.3   0 0 0 0 0.3   0 0 0 0 0.3  0 0 0 0.35 0" result="shadowMatrixOuter1" in="shadowBlurOuter1"/>
   <feMerge>
    <feMergeNode in="shadowMatrixOuter1"/>
    <feMergeNode in="SourceGraphic"/>
   </feMerge>
  </filter>
 </defs>
 <g transform="matrix(0.74,0,0,0.74,1.452,4.905)" fill="none" sketch:type="MSPage">
  <g fill="#FFF" sketch:type="MSArtboardGroup">
   <g sketch:type="MSLayerGroup">
    <path d="M0.61942,57.066c-2.6356,6.241,7.5783,5.584,10.873,2.299,20.097-21.025,53.373-60.777,117.62-48.294,4.94-0.328,6.59-5.9128,1.32-7.5554-67.871-16.099-108.72,28.91-129.81,53.55" sketch:type="MSShapeGroup" filter="url(#filter-1)"/>
    <path d="m161.14,24.63c-0.93524-2.1286-1.786-3.2853-3.5101-4.7941-2.1061-1.8418-4.8761,1.3084-2.77,3.149,1.2886,1.1271,2.6391,1.3404,3.3376,2.931,0.86028,1.9556,3.8028,0.66963,2.9426-1.2859" sketch:type="MSShapeGroup" filter="url(#filter-2)"/>
    <path d="m144.81,10.842c-1.8562-1.613-3.3816-3.571-5.7649-2.8255-1.9038,0.59852-2.049,3.3434-1.203,5.1532,1.836,3.6563,6.2338,2.0753,9.2275,4.9019,2.2524,2.1274,5.452-1.2433,3.1984-3.3707-2.7736-2.6181-3.378-2.0587-5.458-3.859" sketch:type="MSShapeGroup" filter="url(#filter-3)"/>
    <path d="m52.612,59.588-6.5693-15.759-0.11423,0c0.17134,0.85215,0.57233,4.096,0.57233,7.3671v8.3923h-3.4554v-19.656h4.8249l6.655,15.815h0.11423c-0.1999-0.96711-0.54258-3.8116-0.54258-7.3671v-8.448h3.4554v19.656h-4.9404" sketch:type="MSShapeGroup" filter="url(#filter-4)"/>
    <path d="m73.4,55.691c0,1.1366,0.31532,1.5644,1.0578,1.8477l-0.80078,2.419c-1.5992-0.14222-2.6844-0.71111-3.2543-2.0207-1.0852,1.4222-2.77,2.0776-4.5977,2.0776-3.0853,0-4.9701-1.9058-4.9701-4.7218,0-3.187,2.5416-4.979,7.1678-4.979h1.8574v-0.85333c0-1.907-0.88527-2.56-2.9997-2.56-0.97094,0-2.3988,0.22756-3.9409,0.768l-0.88527-2.5031c1.9133-0.7123,3.8266-1.0536,5.3687-1.0536,4.255,0,5.997,1.8216,5.997,5.1212v6.4581zm-3.5399-0.17185,0-3.0151-1.2851,0c-2.8283,0-3.8278,0.93867-3.8278,2.5896,0,1.4791,0.68537,2.2756,2.2001,2.2756,1.1982,0,2.1977-0.68385,2.9128-1.8501z" sketch:type="MSShapeGroup" filter="url(#filter-5)"/>
    <path d="m86.481,58.877c-1.0292,0.76682-2.4845,1.1378-3.7695,1.1378-3.3709-0.02844-4.5703-1.9354-4.5703-5.0074v-7.8791h-2.3143v-2.5896h2.3143v-3.3268l3.6553-0.42785v3.7547h3.685l-0.3998,2.5896h-3.2852v7.8791c0,1.4791,0.48547,2.0764,1.5992,2.0764,0.60089,0,1.1435-0.16948,1.7991-0.5677l1.2863,2.3609" sketch:type="MSShapeGroup" filter="url(#filter-6)"/>
    <path d="m92.105,44.538,0,10.44c0,1.1662,0.22727,2.2187,1.6563,2.2187,1.3993,0,2.3417-0.76682,3.1413-1.8773v-10.782h3.6565v15.049h-3.171l-0.19871-1.8773c-1.1149,1.5064-2.7998,2.304-4.5703,2.304-2.914,0-4.1693-1.7636-4.1693-4.5796v-10.897h3.6553" sketch:type="MSShapeGroup" filter="url(#filter-7)"/>
    <path d="m105.01,59.588,0-15.049,3.2269,0,0.34268,2.8456c0.76985-2.0492,2.1418-3.2439,3.8826-3.2439,0.54258,0,1.0292,0.05689,1.5147,0.19911l-0.62826,3.5283c-0.45691-0.11496-0.82815-0.17185-1.3422-0.17185-1.8562,0-2.8569,1.7079-3.3412,3.7274v8.1647h-3.6553" sketch:type="MSShapeGroup" filter="url(#filter-8)"/>
    <path d="m118.66,53.187c0.28676,2.8456,1.6849,4.0687,3.7124,4.0687,1.2862,0,2.3714-0.37096,3.6565-1.395l1.5706,2.1914c-1.4278,1.165-3.2555,1.9627-5.4556,1.9627-4.8547,0-7.282-3.2723-7.282-7.9372,0-4.4942,2.4274-7.9656,6.7966-7.9656,4.1408,0,6.5681,2.8444,6.5681,7.5959,0,0.48356-0.0559,1.0809-0.0845,1.4791h-9.4821zm-0.0286-2.3609,5.9696,0c-0.0298-2.5896-0.82934-4.1244-2.914-4.1244-1.742,0-2.8557,1.28-3.0556,4.1244z" sketch:type="MSShapeGroup" filter="url(#filter-9)"/>
    <path d="m141.37,38.992-1.028,2.4462c-0.97093-0.42667-1.7991-0.5677-2.5701-0.5677-1.6004,0-2.0858,0.65304-2.0858,2.0764v1.5917h3.5994l-0.3998,2.6169h-3.1996v12.433h-3.6553v-12.433h-2.3702v-2.6169h2.3702v-1.6486c0-2.7319,1.8003-4.7787,5.3128-4.7787,1.598,0,2.8271,0.34015,4.0265,0.88059" sketch:type="MSShapeGroup" filter="url(#filter-10)"/>
    <path d="m145.08,44.538,0,10.44c0,1.1662,0.22727,2.2187,1.6551,2.2187,1.4005,0,2.3429-0.76682,3.1425-1.8773v-10.782h3.6553v15.049h-3.1698l-0.1999-1.8773c-1.1137,1.5064-2.7986,2.304-4.5703,2.304-2.9128,0-4.1693-1.7636-4.1693-4.5796v-10.897h3.6565" sketch:type="MSShapeGroup" filter="url(#filter-11)"/>
    <path d="m166.67,48.948c0-1.5076-0.56995-2.1049-1.855-2.1049-1.2577,0-2.2858,0.96711-3.1139,2.1049v10.639h-3.6553v-15.049h3.1698l0.25702,1.8773c1.2851-1.5064,2.9699-2.304,4.7404-2.304,2.7998,0,4.1122,1.651,4.1122,4.467v11.009h-3.6553v-10.639" sketch:type="MSShapeGroup" filter="url(#filter-12)"/>
    <path d="m183.57,45.649,0-7.5378,3.6553,0.39704,0,21.08-3.2269,0-0.22727-1.792c-0.94357,1.3369-2.4559,2.2187-4.3133,2.2187-3.9123,0-5.74-3.1573-5.74-7.9656,0-4.608,2.2846-7.9372,6.1398-7.9372,1.485,0,2.77,0.54044,3.7124,1.5372zm-6.0255,6.4c0,3.8684,1.1137,5.2065,2.9985,5.2065,1.2577,0,2.3143-0.85452,3.027-1.9923v-6.912c-0.68417-0.93867-1.6266-1.5076-2.77-1.5076-1.999,0-3.2555,1.5917-3.2555,5.2053z" sketch:type="MSShapeGroup" filter="url(#filter-13)"/>
   </g>
  </g>
 </g>
</svg>
