<?xml version="1.0" encoding="UTF-8" standalone="no"?>
<svg width="48px" height="48px" viewBox="0 0 48 48" version="1.1" xmlns="http://www.w3.org/2000/svg" xmlns:xlink="http://www.w3.org/1999/xlink" xmlns:sketch="http://www.bohemiancoding.com/sketch/ns">
    <!-- Generator: Sketch 3.1.1 (8761) - http://www.bohemiancoding.com/sketch -->
    <title>Twitter_normal</title>
    <desc>Created with Sketch.</desc>
    <defs>
        <linearGradient x1="50%" y1="100%" x2="50%" y2="0%" id="linearGradient-1">
            <stop stop-color="#CCCCCC" offset="0%"></stop>
            <stop stop-color="#FFFFFF" offset="100%"></stop>
        </linearGradient>
        <filter x="-50%" y="-50%" width="200%" height="200%" filterUnits="objectBoundingBox" id="filter-2">
            <feOffset dx="0" dy="1" in="SourceAlpha" result="shadowOffsetInner1"></feOffset>
            <feGaussianBlur stdDeviation="0.5" in="shadowOffsetInner1" result="shadowBlurInner1"></feGaussianBlur>
            <feComposite in="shadowBlurInner1" in2="SourceAlpha" operator="arithmetic" k2="-1" k3="1" result="shadowInnerInner1"></feComposite>
            <feColorMatrix values="0 0 0 0 1   0 0 0 0 1   0 0 0 0 1  0 0 0 0.7 0" in="shadowInnerInner1" type="matrix" result="shadowMatrixInner1"></feColorMatrix>
            <feMerge>
                <feMergeNode in="SourceGraphic"></feMergeNode>
                <feMergeNode in="shadowMatrixInner1"></feMergeNode>
            </feMerge>
        </filter>
        <circle id="path-3" cx="24" cy="24" r="24"></circle>
        <filter x="-50%" y="-50%" width="200%" height="200%" filterUnits="objectBoundingBox" id="filter-4">
            <feOffset dx="0" dy="0" in="SourceAlpha" result="shadowOffsetInner1"></feOffset>
            <feGaussianBlur stdDeviation="0.5" in="shadowOffsetInner1" result="shadowBlurInner1"></feGaussianBlur>
            <feComposite in="shadowBlurInner1" in2="SourceAlpha" operator="arithmetic" k2="-1" k3="1" result="shadowInnerInner1"></feComposite>
            <feColorMatrix values="0 0 0 0 0   0 0 0 0 0   0 0 0 0 0  0 0 0 0.175 0" in="shadowInnerInner1" type="matrix" result="shadowMatrixInner1"></feColorMatrix>
            <feMerge>
                <feMergeNode in="SourceGraphic"></feMergeNode>
                <feMergeNode in="shadowMatrixInner1"></feMergeNode>
            </feMerge>
        </filter>
    </defs>
    <g id="Page-1" stroke="none" stroke-width="1" fill="none" fill-rule="evenodd" sketch:type="MSPage">
        <g id="Twitter-" sketch:type="MSArtboardGroup">
            <g id="Twitter_normal" sketch:type="MSLayerGroup">
                <g id="Oval-2" filter="url(#filter-2)">
                    <use stroke="#999999" stroke-width="1" fill="#CCCCCC" sketch:type="MSShapeGroup" xlink:href="#path-3"></use>
                    <use stroke="none" fill="url(#linearGradient-1)" xlink:href="#path-3"></use>
                </g>
                <path d="M36.609,16.367 C35.704,16.769 34.731,17.041 33.71,17.162 C34.753,16.538 35.553,15.548 35.93,14.369 C34.954,14.947 33.874,15.368 32.724,15.595 C31.803,14.613 30.49,14 29.038,14 C26.249,14 23.989,16.261 23.989,19.049 C23.989,19.445 24.035,19.83 24.12,20.199 C19.924,19.989 16.203,17.978 13.714,14.924 C13.279,15.67 13.03,16.537 13.03,17.462 C13.03,19.215 13.921,20.76 15.276,21.664 C14.448,21.639 13.67,21.412 12.988,21.033 L12.988,21.097 C12.988,23.543 14.73,25.584 17.039,26.047 C16.615,26.163 16.17,26.225 15.707,26.225 C15.383,26.225 15.066,26.193 14.758,26.135 C15.402,28.141 17.266,29.6 19.475,29.641 C17.747,30.996 15.57,31.803 13.204,31.803 C12.797,31.803 12.396,31.777 12,31.73 C14.234,33.164 16.888,34 19.739,34 C29.026,34 34.106,26.307 34.106,19.635 C34.106,19.415 34.101,19.197 34.091,18.981 C35.077,18.269 35.934,17.38 36.609,16.367" id="Imported-Layers" fill="#91AF21" filter="url(#filter-4)" sketch:type="MSShapeGroup"></path>
            </g>
        </g>
    </g>
</svg>